<svg xmlns="http://www.w3.org/2000/svg" width="1944.391" height="1222.357" viewBox="0 0 1944.391 1222.357">
  <g id="Group_66" data-name="Group 66" transform="translate(-3366.639 -1062.927)" opacity="0.21">
    <g id="Group_46" data-name="Group 46" transform="translate(3366.639 1062.927)">
      <path id="Path_106" data-name="Path 106" d="M3506.391,1975.832a380.222,380.222,0,0,1-62.517-4.881,426.817,426.817,0,0,1-77.236-19.993l3.1-6.978a417.776,417.776,0,0,0,75.635,19.572C3679.6,2002.607,4058.126,1788.68,4210,1694.888c133.41-82.379,237.754-75.958,338.655-69.741,97.544,6,189.68,11.674,306.92-56.714,131.839-76.906,278.484-242.258,448.3-505.506l7.149,3.8c-172.864,267.964-316.167,429.4-450.975,508.035-119.546,69.732-217.358,63.707-311.958,57.888-99.5-6.131-202.393-12.465-333.438,68.456-82.965,51.238-210.547,124.534-347.188,182.748C3723.9,1945.023,3602.816,1975.83,3506.391,1975.832Z" transform="translate(-3366.639 -1062.927)" fill="#a8825b"/>
    </g>
    <g id="Group_47" data-name="Group 47" transform="translate(3366.859 1133.386)">
      <path id="Path_107" data-name="Path 107" d="M3510.478,1940.663a462.608,462.608,0,0,1-65.73-4.451,532.112,532.112,0,0,1-78.041-17.284l2.647-7.127a523.05,523.05,0,0,0,76.7,16.983c36.243,5.215,76.845,5.751,120.676,1.6,220.067-20.877,520.462-157.373,658.116-238.5,133.074-78.431,232.73-77.448,329.1-76.493,84.842.838,164.947,1.628,266.464-47.868,157.179-76.684,315.293-233.864,483.371-480.523l7.046,3.959c-168.869,247.81-328,405.863-486.5,483.19-103.4,50.413-188.33,49.578-270.476,48.762-95.136-.934-193.525-1.912-324.5,75.284-138.3,81.512-440.25,218.661-661.766,239.676C3547.9,1939.729,3528.821,1940.663,3510.478,1940.663Z" transform="translate(-3366.708 -1086.99)" fill="#a8825b"/>
    </g>
    <g id="Group_48" data-name="Group 48" transform="translate(3367.088 1203.841)">
      <path id="Path_108" data-name="Path 108" d="M3515.1,1905.557a563.415,563.415,0,0,1-69.5-4.091,663.743,663.743,0,0,1-78.825-14.579l2.183-7.256a655.182,655.182,0,0,0,77.765,14.383c37.142,4.627,78.318,5.265,122.4,1.895,225.762-17.255,539.8-133.374,670.559-207.042,132.643-74.725,227.663-79.155,319.554-83.442,80.267-3.745,156.084-7.282,255.1-54.559,232.248-111.027,383.51-293.365,489.346-439.814l6.923,4.126c-202.516,280.238-369.534,383.6-492.412,442.344-100.634,48.047-180.907,51.792-258.535,55.414-90.843,4.237-184.783,8.621-315.609,82.323-131.456,74.054-447.2,190.792-674.234,208.146Q3541.655,1905.557,3515.1,1905.557Z" transform="translate(-3366.781 -1111.052)" fill="#a8825b"/>
    </g>
    <g id="Group_49" data-name="Group 49" transform="translate(3367.314 1274.288)">
      <path id="Path_109" data-name="Path 109" d="M3521.377,1870.448a725.208,725.208,0,0,1-74.914-3.719c-26.333-2.744-52.372-6.632-79.611-11.891l1.725-7.358c26.974,5.209,52.763,9.063,78.831,11.777,38.38,4,80.138,4.734,124.117,2.19,209.472-12.122,535.01-95.81,682.993-175.58,132.213-71.27,222.669-81.108,310.145-90.624,75.706-8.234,147.214-16.011,243.618-61.016,117.031-54.74,293.895-137.465,495.321-399.116l6.789,4.308c-202.6,263.179-380.56,346.416-498.317,401.493-97.731,45.626-173.323,53.848-246.424,61.8-86.623,9.423-176.192,19.164-306.9,89.623-148.879,80.253-476.185,164.436-686.7,176.617Q3546.186,1870.45,3521.377,1870.448Z" transform="translate(-3366.852 -1135.111)" fill="#a8825b"/>
    </g>
    <g id="Group_50" data-name="Group 50" transform="translate(3367.544 1344.724)">
      <path id="Path_110" data-name="Path 110" d="M3530.427,1835.373c-28.574,0-56.391-1.127-83.1-3.376-32.68-2.752-61.537-6.573-80.4-9.209l1.258-7.435c18.758,2.621,47.449,6.421,79.905,9.153a1029.959,1029.959,0,0,0,125.833,2.486c109.109-4.26,244.47-21.035,371.369-46.023,139.738-27.515,254.825-62.351,324.063-98.091,131.95-68.107,217.944-83.369,301.1-98.126,71.076-12.611,138.208-24.523,231.764-67.162,11.751-5.367,24.347-10.886,37.681-16.728,113.428-49.7,284.844-124.807,463.623-341.7l6.633,4.506c-179.995,218.36-352.5,293.945-466.657,343.963-13.3,5.83-25.869,11.335-37.561,16.678-94.572,43.1-165.4,55.669-233.893,67.82-82.508,14.644-167.824,29.782-298.6,97.283-69.948,36.106-185.868,71.232-326.4,98.9-127.342,25.076-263.212,41.91-372.773,46.19Q3552.105,1835.37,3530.427,1835.373Z" transform="translate(-3366.923 -1159.166)" fill="#a8825b"/>
    </g>
    <g id="Group_51" data-name="Group 51" transform="translate(3367.769 1415.156)">
      <path id="Path_111" data-name="Path 111" d="M3545.528,1800.374c-32.737,0-65.362-1.04-97.348-3.107-27.275-1.762-52.82-4.029-75.361-6.026l-5.825-.518.8-7.484,5.828.516c22.489,1.994,47.977,4.254,75.146,6.008,41.812,2.7,84.724,3.637,127.545,2.779,122.025-2.442,257.912-12.813,372.825-28.455,148.757-20.248,264.615-49.362,335.047-84.188,132.3-65.428,214.071-86.18,293.151-106.252,66.188-16.8,128.7-32.666,218.825-72.69,19.235-8.568,41.673-17.208,65.426-26.355,110.828-42.68,278.312-107.183,441.871-291.38l6.449,4.72c-164.862,185.667-333.5,250.609-445.084,293.585-23.647,9.106-45.982,17.709-65.021,26.189-90.8,40.326-156.6,57.024-220.237,73.176-78.632,19.958-159.941,40.592-291.42,105.613-72.289,35.749-185.935,64.354-337.779,85.02-115.245,15.686-251.513,26.086-373.869,28.54Q3561.016,1800.37,3545.528,1800.374Z" transform="translate(-3366.994 -1183.22)" fill="#a8825b"/>
    </g>
    <g id="Group_52" data-name="Group 52" transform="translate(3367.989 1485.576)">
      <path id="Path_112" data-name="Path 112" d="M3553.583,1765.955c-31.167,0-61.6-1.42-91.238-2.8l-13.3-.615q-18.275-.835-35.353-1.716c-16.385-.82-31.864-1.593-46.626-2.17l.358-7.514c14.811.577,30.312,1.353,46.723,2.173q17.069.856,35.314,1.713l13.312.615c37.426,1.745,76.131,3.546,115.829,2.459,25.08-.688,52.364-1.239,81.251-1.822,207.9-4.187,492.629-9.92,639.173-79.36,135.43-64.175,213.882-90.774,289.748-116.5,57.51-19.5,116.977-39.658,201.337-76.093,24.163-10.468,53.144-19.791,86.7-30.581,115.666-37.2,274.074-88.142,426.607-246.481l6.234,4.954c-153.959,159.818-313.548,211.142-430.075,248.615-33.339,10.723-62.133,19.981-85.907,30.282-84.688,36.575-144.327,56.8-202,76.35-75.633,25.641-153.839,52.158-288.815,116.116-148.257,70.254-434.1,76.01-642.82,80.212-28.868.583-56.135,1.133-81.186,1.818Q3566.137,1765.97,3553.583,1765.955Z" transform="translate(-3367.064 -1207.27)" fill="#a8825b"/>
    </g>
    <g id="Group_53" data-name="Group 53" transform="translate(3368.126 1555.991)">
      <path id="Path_113" data-name="Path 113" d="M3890.934,1738.3c-74.082,0-147.08-2.316-212.437-4.392-35.034-1.113-68.129-2.164-97.487-2.718-32.573-.615-64.724-1.519-95.817-2.4q-17.874-.505-35.23-.978c-29.058-.773-57.249-1.455-82.776-1.233l-.081-7.519c25.669-.219,53.956.457,83.1,1.236q17.351.466,35.243.975c31.071.876,63.2,1.781,95.737,2.4,29.416.554,62.537,1.6,97.6,2.72,204.959,6.509,485.663,15.422,635.131-52.439,230.424-104.615,276.3-125,470.2-206.24,27.53-11.578,62.932-20.552,103.927-30.944,114.524-29.029,271.373-68.787,415.41-205.447l5.981,5.2c-145.6,138.15-303.717,178.227-419.163,207.493-40.648,10.3-75.752,19.2-102.678,30.522-193.789,81.2-239.648,101.575-469.972,206.143C4214.323,1727.577,4050.179,1738.3,3890.934,1738.3Z" transform="translate(-3367.106 -1231.318)" fill="#a8825b"/>
    </g>
    <g id="Group_54" data-name="Group 54" transform="translate(3367.919 1626.397)">
      <path id="Path_114" data-name="Path 114" d="M4033.488,1721.778c-101.054,0-207.365-8.1-302.733-15.378-54.085-4.123-105.168-8.02-147.22-9.648-50.471-1.953-92.3-3.323-132.414-3.657-34.731-.287-60.517.146-83.58,1.408l-.5-7.508c23.263-1.273,49.213-1.716,84.156-1.42,40.226.334,82.137,1.708,132.692,3.664,42.219,1.634,93.385,5.537,147.558,9.666,202.191,15.419,453.822,34.6,597.6-27.914,115.871-50.387,182.4-86.888,241.108-119.091,58.861-32.294,114.456-62.8,208.209-100.811,29.883-12.161,70.942-19.7,118.48-28.435,113.827-20.907,269.721-49.543,406.9-167.291l5.691,5.467c-138.9,119.226-296.135,148.109-410.945,169.2-47.053,8.641-87.691,16.107-116.74,27.928-93.289,37.828-146.126,66.816-207.309,100.384-58.861,32.291-125.578,68.892-241.811,119.434C4255.254,1711.416,4147.734,1721.778,4033.488,1721.778Z" transform="translate(-3367.042 -1255.363)" fill="#a8825b"/>
    </g>
    <g id="Group_55" data-name="Group 55" transform="translate(3367.722 1696.794)">
      <path id="Path_115" data-name="Path 115" d="M4114.6,1710.262c-115.547,0-242.491-15.689-354.007-29.465-65.085-8.044-126.559-15.639-174.548-18.474-51.322-3.03-95.067-4.328-133.78-3.944-32.537.316-60.141,1.639-84.388,4.041l-.9-7.475c24.518-2.431,52.389-3.766,85.2-4.085,38.887-.381,82.87.914,134.4,3.958,48.281,2.849,109.9,10.462,175.126,18.523,195.717,24.183,439.292,54.284,582.464-5.309,118.842-49.461,179.215-90.241,237.605-129.68,52.876-35.711,102.822-69.445,190.834-103.877,31.548-12.386,77.747-17.642,131.238-23.729,113.427-12.9,268.773-30.575,400.2-131.342l5.344,5.748c-133.305,102.208-290.057,120.037-404.512,133.058-52.864,6.014-98.52,11.208-128.987,23.173-87.129,34.086-136.7,67.563-189.172,103-56,37.822-119.465,80.689-239.1,130.482C4284.643,1701.085,4202.947,1710.259,4114.6,1710.262Z" transform="translate(-3366.979 -1279.405)" fill="#a8825b"/>
    </g>
    <g id="Group_56" data-name="Group 56" transform="translate(3367.534 1767.182)">
      <path id="Path_116" data-name="Path 116" d="M4170.305,1701.477c-125.33,0-267.8-24.417-391.133-45.558-75.056-12.863-139.876-23.976-190.618-28.022-49.129-3.915-94.6-5.343-135.145-4.228-31.918.879-59.791,3.06-85.209,6.67l-1.28-7.432c25.763-3.66,53.97-5.868,86.237-6.755,40.87-1.125,86.671.31,136.122,4.251,51.151,4.082,116.156,15.223,191.428,28.125,193.139,33.1,433.512,74.3,578.584,16.558,118.973-47.359,175.143-93.623,229.459-138.364,48.1-39.62,93.534-77.041,178.1-108.852,32.729-12.354,83.734-14.626,142.8-17.258,113.22-5.048,268.283-11.958,394.734-97.169l4.938,6.041c-128.471,86.572-284.985,93.547-399.267,98.639-58.29,2.6-108.629,4.843-140.027,16.693-83.248,31.313-128.162,68.309-175.713,107.476-52.258,43.046-111.49,91.831-231.7,139.681C4308.8,1693.4,4242.381,1701.477,4170.305,1701.477Z" transform="translate(-3366.92 -1303.444)" fill="#a8825b"/>
    </g>
    <g id="Group_57" data-name="Group 57" transform="translate(3367.356 1837.574)">
      <path id="Path_117" data-name="Path 117" d="M4212.642,1694.274c-133.178,0-288.5-34-421.525-63.115-79.6-17.422-148.338-32.47-200.061-37.693-48.387-4.887-94.32-6.4-136.513-4.509a638.978,638.978,0,0,0-86.035,9.291l-1.642-7.37a647.628,647.628,0,0,1,87.268-9.435c42.634-1.909,89.013-.38,137.838,4.551,52.242,5.273,121.216,20.374,201.087,37.854,192.852,42.211,432.864,94.748,581.347,38.288,118.391-45.017,170.119-96.7,220.144-146.677,43.631-43.594,84.844-84.768,166.549-114.2,33.544-12.116,89.171-10.816,153.569-9.308,119.435,2.8,268.061,6.275,390.088-64.465l4.457,6.339c-124.162,71.978-274.2,68.462-394.757,65.645-63.49-1.481-118.326-2.767-150.3,8.779-79.921,28.792-120.505,69.34-163.476,112.269-48.274,48.232-102.989,102.9-223.075,148.56C4330.136,1687.124,4273.712,1694.274,4212.642,1694.274Z" transform="translate(-3366.865 -1327.484)" fill="#a8825b"/>
    </g>
    <g id="Group_58" data-name="Group 58" transform="translate(3367.187 1907.962)">
      <path id="Path_118" data-name="Path 118" d="M4247.214,1688.063c-140.235.006-306.858-44.267-448.4-81.869-82.438-21.9-153.634-40.815-205.265-47.154-48.187-5.915-94.575-7.528-137.874-4.8a553.309,553.309,0,0,0-86.875,11.912l-1.983-7.3a562.4,562.4,0,0,1,88.293-12.113c43.854-2.764,90.806-1.136,139.548,4.849,52.25,6.416,123.724,25.4,206.481,47.388,194.008,51.538,435.457,115.689,588.371,60.216,117.54-42.633,164.727-99.728,210.361-154.945,39.293-47.541,76.407-92.446,155.472-119.6,34.1-11.73,91.373-6.582,163.888-.062,119.371,10.729,267.936,24.087,385.926-33.064l3.9,6.638c-120.206,58.219-270.158,44.741-390.641,33.91-68.609-6.167-127.858-11.5-160.138-.386-76.82,26.376-113.23,70.432-151.779,117.074-44.163,53.435-94.217,114-213.914,157.417C4349.8,1681.692,4300.4,1688.06,4247.214,1688.063Z" transform="translate(-3366.812 -1351.523)" fill="#a8825b"/>
    </g>
    <g id="Group_59" data-name="Group 59" transform="translate(3367.031 1965.836)">
      <path id="Path_119" data-name="Path 119" d="M4276.969,1690.736c-147.007,0-324.014-55.147-473.385-101.687-84.079-26.2-156.695-48.82-207.558-56.2-80.474-11.671-158.956-8.41-226.965,9.449l-2.3-7.227c69.175-18.16,148.9-21.5,230.57-9.648,51.571,7.484,124.5,30.206,208.941,56.515,196.13,61.112,440.229,137.164,598.335,82.549,116.558-40.258,159.145-102.8,200.331-163.285,35.021-51.429,68.1-100.009,144.637-124.918,34.454-11.215,96.043-1.684,174.022,10.38,119.289,18.459,267.748,41.432,381.987-2.849l3.255,6.916c-116.481,45.154-266.272,21.975-386.635,3.347-73.738-11.411-137.42-21.264-169.835-10.714-73.808,24.022-106.146,71.516-140.383,121.793-39.961,58.682-85.25,125.193-204.434,166.363C4368.4,1685.035,4324.234,1690.736,4276.969,1690.736Z" transform="translate(-3366.762 -1371.288)" fill="#a8825b"/>
    </g>
  </g>
</svg>
