<svg xmlns="http://www.w3.org/2000/svg" xmlns:xlink="http://www.w3.org/1999/xlink" width="383.374" height="437.609" viewBox="0 0 383.374 437.609"><defs><linearGradient id="a" x1="0.704" y1="-0.136" x2="0.198" y2="1.637" gradientUnits="objectBoundingBox"><stop offset="0" stop-color="#ff94b1"/><stop offset="1" stop-color="#fee3e8"/></linearGradient></defs><path d="M774.03,327.458c-16.625-8.288-22.807-10.712-34.145-13.662-9.222-2.394-18.366-1.6-22.712-2.741a24.508,24.508,0,0,1-.646-16.595,66.747,66.747,0,0,0,4.689-6.773l6.1-10.248c23.263-39.147,49.631-83.509,64.38-95.41l-1.911-2.378c-15.189,12.248-41.7,56.861-65.1,96.228l-5.511,9.268c-18.415-4.535-31.228-9.888-40.042-14.819,23.534-23.253,23.72-47.936,21.134-68.765-2.608-21.023-26.568-49.647-32.923-55.877-11.468-11.228-32.131-16.762-32.131-16.762,9.028,7.028,1.517,48.92,5.46,91.648,2.394,25.95,15.807,38.969,25.976,45.2,8.076,6.5,23.245,15.191,50.827,22.1a86.2,86.2,0,0,1-10.937,13.312l0,0c-14.074,4.074-36.949,1.337-51.863-1.222-6.717-8.638-6.87-34.141-12.5-47.781-6.424-15.546-36.189-46.086-73.607-56.9-45.486-13.13-74.029,14.852-74.029,14.852,13.813,1.836,76.532,57.788,100.349,73.874,13.5,9.115,31.927,13.839,45.367,16.223,6.153,1.42,40.159,8.838,62.127,5.016-13.181,12.331-31.04,24.675-49.526,36.1-1.974-.818-3.955-1.545-5.929-2.151-14.892-4.561-29.339-3.3-37.868-1.78-4.994-1.042-8.529-4.709-19.849-8.83-16.161-5.884-43.75-21.39-83.15-12.7s-74.922,67.286-69.48,62.563,102.484-16.51,127.46-22.435c16.621-3.941,33.054-10.763,42.195-14.888,7.812-1.695,25.8-4.315,43.373,2.218q-3.012,1.839-6.034,3.644l-.01-.008-.018.026c-14.651,8.747-29.261,16.827-41.821,23.772-8.205,4.539-15.482,8.565-21.217,11.935-17.871,6.191-68.337,24.952-82.849,44-16.7,21.9-27.028,41.32-35.725,80.088-2.176,9.719,47.556-22.291,61.267-33.133C535.523,463.917,559.4,446.7,570.9,419.6c3.9-9.181,8.824-27.453,13.09-35.4,5.357-3.1,11.906-6.719,19.2-10.753,11.062-6.115,23.7-13.1,36.569-20.661-7.884,13.547-10.51,28.9-11.327,39.278-6.729,6.555-23.4,24.079-27.036,40.08-4.582,20.16,25.73,64.581,29.9,77.039s7.575,43.048,2.083,55.742,53.2-53.219,53.3-82.7c.151-51.948-44.415-69.422-54.968-91.919,1.125-11.413,4.456-27.871,13.951-41.026,9.915-5.933,19.843-12.175,29.184-18.593-3.535,9.828-4.6,17.334-4.345,23-.592,7.238-1.087,36.608,24.469,72.787,19.407,27.469,27.026,66.5,23.449,79.849-1.848,6.894,44.862-58.663,32.057-91.594-14.6-37.575-33.321-44.07-51.257-51.639-13.9-5.872-21.546-8.3-25.614-9.842-.242-5.961,1.069-14.26,5.7-25.675,13.04-9.236,24.683-18.781,33.155-28.247a27.044,27.044,0,0,0,3.036,15.389c1.495,10.009,7.292,33.1,29.525,44.837,28.871,15.233,65.553,20.621,73.084,25.586S798.691,339.75,774.03,327.458Z" transform="translate(-436.023 -128.924)" opacity="0.301" fill="url(#a)"/></svg>