<svg xmlns="http://www.w3.org/2000/svg" xmlns:xlink="http://www.w3.org/1999/xlink" viewBox="0 0 1920 986.556"><defs><linearGradient id="a" x1="0.5" y1="0.179" x2="0.5" y2="0.848" gradientUnits="objectBoundingBox"><stop offset="0" stop-color="#f6cfd6"/><stop offset="1" stop-color="#fee3e8"/></linearGradient></defs><path d="M1153,1051.052c117.556-18.333,269.229,187.928,483.578,254.406s450.59-183.39,612.209-198.147c169.731-15.5,291.508,31.826,316.3,39.2,0,0,6.063,1.828,9.061,2.766.126.038.245.077.371.116q4.4,1.381,8.761,2.812l.487.162c1.32.437,2.656.861,3.963,1.3V330.129h-1920v944.677q35.412-10.985,75.913-21.7C1020.294,1180.064,1007.025,1073.82,1153,1051.052Z" transform="translate(-667.73 -330.129)" fill="url(#a)"/></svg>