<svg xmlns="http://www.w3.org/2000/svg" width="984.799" height="350.651" viewBox="0 0 984.799 350.651"><g transform="translate(-771.6 501.695)"><path d="M247.582,101.883S257.832,82,254.9,67.346s-15.886-21.139-19.14-23.394-20.4-11.8-27.2-31.645c0,0-4.806,36.622,5.232,58.378s15.972,29.2,20.5,32.241c9.783,6.55,37.664,18.417,46.681,35.367a145.019,145.019,0,0,0-26.584-19.459c-16.333-9.421-24.9-8.379-37.877-23.394s-14.653-25.754-15.482-30.986A112.716,112.716,0,0,1,207.919,7.33s4.7,13.462,10.633,19.438,35.325,22.671,39.238,35.154-2.658,26.52-4.572,30.688a69.454,69.454,0,0,1-5.636,9.272Z" transform="translate(981.575 -509.025)" fill="#d86c8c"/><path d="M273.493,42.45a49.124,49.124,0,0,1-6.72,9.209,20.455,20.455,0,0,1-2.127,2.127c-.787.617-1.574,1.148-2.318,1.68a36.451,36.451,0,0,0-4.253,3.254,14.463,14.463,0,0,0-3.041,3.828,11.188,11.188,0,0,0-.893,2.127c-.213.787-.383,1.659-.532,2.51a102.484,102.484,0,0,0-.617,11.038,30.285,30.285,0,0,1-2.339-11.229,16.5,16.5,0,0,1,.213-3.041,12.081,12.081,0,0,1,.915-3.062,15.653,15.653,0,0,1,3.7-5.04,27.839,27.839,0,0,1,4.764-3.488l2.382-1.4c.659-.425,1.382-.978,2.127-1.51C267.6,47.193,270.537,44.726,273.493,42.45Z" transform="translate(1038.69 -469.456)" fill="#d86c8c"/><path d="M281.161,40s1.4,23.053-2.51,32.879a33.814,33.814,0,0,1-12.526,15.589c-3.318,2.318-15.185,7.933-20.055,13.781a82.176,82.176,0,0,1,11.186-6.954c4.977-2.361,20.906-6.04,24.542-20.735C285.8,58.311,281.161,40,281.161,40Z" transform="translate(1033.532 -472.216)" fill="#d86c8c"/><path d="M207.7,20.78a99.571,99.571,0,0,1,9.677,10.846c1.51,1.893,2.914,3.871,4.253,5.912a34.026,34.026,0,0,1,3.488,6.7,64.314,64.314,0,0,1,3.552,14.27,47.314,47.314,0,0,1,.447,7.358,27.029,27.029,0,0,1-1,7.273,73.538,73.538,0,0,0-2.361-14.058A130.412,130.412,0,0,0,221.5,45.6a32.544,32.544,0,0,0-1.34-3.148c-.468-1-1.085-2-1.659-3.02-1.17-2.127-2.467-4.062-3.679-6.125C212.443,29.223,209.954,25.1,207.7,20.78Z" transform="translate(990.3 -493.871)" fill="#d86c8c"/><path d="M260.383,50.25a21.861,21.861,0,0,0-2.573,4.934c-.34.851-.617,1.723-.893,2.616s-.51,1.808-.851,2.743a10.633,10.633,0,0,1,.553-5.827,9.824,9.824,0,0,1,1.468-2.595,6.125,6.125,0,0,1,2.3-1.871Z" transform="translate(1044.591 -460.667)" fill="#d86c8c"/><path d="M238.65,70.87,249.5,71.891v2.276s-1.765,4.53,0,6.38,17.014,19.14,23.968,26.988,30.263,28.774,30.263,62.312-9.591,60.164-43.9,116.543c0,0,38.281-68.586,37.834-111.886-.3-27.115-11.357-40.6-14.121-45.894s-31.029-38.281-31.029-38.281,20.544,38.238,22.054,60.781C274.57,151.111,263.532,108.109,238.65,70.87Z" transform="translate(1025.172 -437.435)" fill="#d86c8c"/><path d="M253.181,72.16s-29.944,38.43-22.245,102.082a238.489,238.489,0,0,0,42.173,107.909s-44.3-51.977-47.766-113.1S253.181,72.16,253.181,72.16Z" transform="translate(1009.876 -435.981)" fill="#d86c8c"/><path d="M259.92,222.479h-2.552V221.2h1.276v-75.5l-34.814.574V140.6h34.814l-.6-31.071h4.211V140.6h34.708v1.276H260.984V110.806h-1.638l.6,31.071H225.106v3.105l34.814-.574Z" transform="translate(1023.701 -378.33)" fill="#d86c8c"/><path d="M264.45,133.59" transform="translate(1054.241 -366.768)" fill="#d86c8c" stroke="#ec1c4e" stroke-miterlimit="10" stroke-width="0.25"/><line y2="79.305" transform="translate(1285.323 -233.178)" fill="#8d5aa8"/><path d="M242.576,207.828H241.3V126.014l35.6-.064v1.276l-34.325.064Z" transform="translate(1043.385 -359.829)" fill="#d86c8c"/><text transform="translate(1355.589 -331.379)" fill="#a8825b" font-size="26" font-family="Baskerville"><tspan x="0" y="0">B</tspan><tspan y="0" letter-spacing="-0.11em">Y</tspan><tspan y="0">:</tspan></text><text transform="translate(1351.4 -269.983)" fill="#a8825b" font-size="74" font-family="Baskerville" letter-spacing="0.02em"><tspan x="0" y="0">GR</tspan><tspan y="0" letter-spacing="-0.01em">A</tspan><tspan y="0">CIOUS</tspan></text><text transform="translate(1351.4 -201.29)" fill="#a8825b" font-size="74" font-family="Baskerville" letter-spacing="0.02em"><tspan x="0" y="0">COUTURE</tspan></text><path d="M134.226,226.962a11.7,11.7,0,0,1,10.634,5.381,16.886,16.886,0,0,1,2.276,12.058,21.033,21.033,0,0,1-6.742,12.037q-5.657,5.381-16.631,5.4a37.089,37.089,0,0,1-19.14-4.041,31.9,31.9,0,0,1-11.569-11.4,54.3,54.3,0,0,1-6.38-16.546,191.366,191.366,0,0,1-3.339-19.332c-.829-6.635-1.6-13.334-2.127-20.034a112.459,112.459,0,0,0-3.445-18.524,48,48,0,0,0-6.55-14.568,22.607,22.607,0,0,0-11.973-8.634c-2.127-.6-2.743-1.34-2.127-2.127S58.9,145.53,60.706,146a18.311,18.311,0,0,1,4.041,1.17,46.1,46.1,0,0,1,4.4,2.616,22.054,22.054,0,0,0,13.59-2.531,39.428,39.428,0,0,0,10.953-8.975,52.274,52.274,0,0,0,7.911-12.42,66.887,66.887,0,0,0,4.594-13.122,52.913,52.913,0,0,0,1.446-12.143,29.965,29.965,0,0,0-1.723-10.634,16.142,16.142,0,0,0-5.572-7.55,15.886,15.886,0,0,0-9.889-2.871A23.1,23.1,0,0,0,79.825,82.41,65.927,65.927,0,0,0,68.851,89.6,93.3,93.3,0,0,0,58.77,98.956c-3.105,3.339-5.806,6.529-8.081,9.528.128,1.68.213,4.615.276,8.8s0,9.1-.191,14.738-.532,11.8-1.063,18.524-1.3,13.419-2.254,20.14-2.127,13.207-3.594,19.5a88.28,88.28,0,0,1-5.189,16.631,39.62,39.62,0,0,1-7.55,11.591,13.462,13.462,0,0,1-9.889,4.4,12.42,12.42,0,0,1-10.208-4.062,18.5,18.5,0,0,1-3.764-10.782,56.443,56.443,0,0,1,1.446-15.546,154.7,154.7,0,0,1,5.147-18.332q3.318-9.591,7.635-19.417t8.89-18.609q4.594-8.8,8.911-15.908t7.38-11.229q-.383-6.125-1.085-11.7a46.958,46.958,0,0,0-2.254-9.8,21.905,21.905,0,0,0-3.956-7,9.592,9.592,0,0,0-6.019-3.339,2.956,2.956,0,0,1-1.978-.808,1.042,1.042,0,0,1-.276-1.17,2.127,2.127,0,0,1,1.191-.978,3.934,3.934,0,0,1,2.127-.191A14.887,14.887,0,0,1,46.031,83.3a59.144,59.144,0,0,1,4.594,20.608,91.449,91.449,0,0,1,8.167-9,95.961,95.961,0,0,1,10.634-9,69.585,69.585,0,0,1,11.505-6.827,26.924,26.924,0,0,1,11.208-2.829,30.071,30.071,0,0,1,14.313,3.424,21.543,21.543,0,0,1,8.507,8.507,27.222,27.222,0,0,1,3.148,12.122,40.833,40.833,0,0,1-1.893,13.845,57.633,57.633,0,0,1-6.38,14.206,55.294,55.294,0,0,1-9.974,12.037,50.1,50.1,0,0,1-12.76,8.507,36.43,36.43,0,0,1-14.568,3.4,36.984,36.984,0,0,1,8.719,11.42,88,88,0,0,1,5.933,15.291q2.424,8.358,4.253,17.439c1.191,6.061,2.382,12.037,3.594,17.971S97.562,226,99.071,231.449a64.546,64.546,0,0,0,5.657,14.121,29.306,29.306,0,0,0,8.379,9.528,19.694,19.694,0,0,0,11.867,3.509,21.268,21.268,0,0,0,10.166-2.127,16.63,16.63,0,0,0,6.189-5.3,15.589,15.589,0,0,0,1.978-13.675,11.038,11.038,0,0,0-3.679-5.21,9.677,9.677,0,0,0-6.21-2.127,6.189,6.189,0,0,0-3.594.893,10.229,10.229,0,0,0-2.233,1.531l-.914.893q-.255.276-.7,0a20.093,20.093,0,0,1-1.893-1.34,20.417,20.417,0,0,1,4.679-3.871A10.973,10.973,0,0,1,134.226,226.962Zm-115.8-7.911c2.127,0,4.253-1.4,6.125-4.253a51.041,51.041,0,0,0,5.381-11.059A153.481,153.481,0,0,0,34.7,188.022q2.276-8.911,4.147-18.353t3.318-18.779q1.425-9.336,2.424-17.014c.659-5.168,1.17-9.528,1.531-13.122s.553-6,.553-7.21a96.6,96.6,0,0,0-9.187,14.036q-5.381,9.528-10.634,21.267t-9.762,24.181a148.613,148.613,0,0,0-6.38,22.649,42.258,42.258,0,0,0-.362,16.8,7.55,7.55,0,0,0,8.081,6.572Z" transform="translate(764.398 -434.045)" fill="#a8825b"/><path d="M120.706,126.652a15.7,15.7,0,0,1,1.808.638c.34.191.532.383.532.638a3.02,3.02,0,0,1-.447,1.17c-.3.532-.766,1.34-1.361,2.424q-4.657,9-9.421,17.248a71.308,71.308,0,0,1-12.76,15.823,45.511,45.511,0,0,1-11.7,8.273,31.178,31.178,0,0,1-13.845,3.062,16.206,16.206,0,0,1-9.719-2.616,13.611,13.611,0,0,1-5.019-7,25.839,25.839,0,0,1-1-10.081,58.782,58.782,0,0,1,2.254-11.782,75.072,75.072,0,0,1,7.55-17.8,58.867,58.867,0,0,1,9.166-11.846,31.2,31.2,0,0,1,9.166-6.38,15.972,15.972,0,0,1,7.826-1.51,5.806,5.806,0,0,1,4.764,2.871,8.379,8.379,0,0,1,.191,6.657,13.887,13.887,0,0,1-3.424,6.1,16.461,16.461,0,0,1-5.3,3.594,23.947,23.947,0,0,1-6.38,1.7,45.106,45.106,0,0,1-6.38.468A129.384,129.384,0,0,0,71.089,143.2,77.071,77.071,0,0,0,67.5,157.574a24.457,24.457,0,0,0,.532,10.889,6,6,0,0,0,6.38,4.253,28.944,28.944,0,0,0,12.505-2.7,37.494,37.494,0,0,0,10.336-7.38,69.416,69.416,0,0,0,12.186-15.1q4.764-8.209,9.081-16.631C119.515,129.119,120.216,127.736,120.706,126.652ZM95.887,116.422a7.21,7.21,0,0,0,0-5.572c-.7-1.212-1.914-1.531-3.594-1a16.248,16.248,0,0,0-6.019,4.487A49.424,49.424,0,0,0,79,125.227a35.241,35.241,0,0,0,4.849-.362,23.669,23.669,0,0,0,4.934-1.255,12.994,12.994,0,0,0,4.253-2.616A9.8,9.8,0,0,0,95.887,116.422Z" transform="translate(821.24 -396.855)" fill="#a8825b"/><path d="M158.676,153.767c1.319.6,2.127.936,2.254.978s0,.808-.808,2.254A97.957,97.957,0,0,1,154,167.974a36.154,36.154,0,0,1-6.38,7.358,36.985,36.985,0,0,1-8.358,5.4c-3.233,1.552-7.38,3.3-12.4,5.21a47.235,47.235,0,0,1-3.956,6.019,49.853,49.853,0,0,1-5.572,6.21,35.537,35.537,0,0,1-6.486,4.849A13.228,13.228,0,0,1,104.19,205a4.509,4.509,0,0,1-3.679-1.616,4.742,4.742,0,0,1-.978-3.956,8.953,8.953,0,0,1,2.127-4.679,20.585,20.585,0,0,1,4.509-3.764,47.516,47.516,0,0,1,5.3-2.871c1.808-.851,3.36-1.51,4.679-1.978.723-1.68,1.6-3.807,2.595-6.38s1.978-5.253,2.892-8.081,1.7-5.657,2.424-8.507a36.154,36.154,0,0,0,1.17-7.72,11.357,11.357,0,0,0-1.085-5.657,4.253,4.253,0,0,0-4.041-2.254c-2.127,0-4.253,1.659-6.38,4.934a94.871,94.871,0,0,0-6.635,11.42c-2.127,4.253-4.1,8.507-5.848,12.76s-3.084,7.1-4.041,8.911a8.1,8.1,0,0,0-.914,1.616c0,1.446-.17,2.914-.17,4.4v8.89a4.955,4.955,0,0,1-2.127,3.871,5.678,5.678,0,0,1-4.062,1.085,5.976,5.976,0,0,1-3.849-2.339,8.868,8.868,0,0,1-1.531-6.21,2.126,2.126,0,0,1,.17-.893,11.569,11.569,0,0,1-.255-3.318q0-1.893.255-4.594a242.767,242.767,0,0,1,4.253-32.624q3.211-16.652,7.358-31.56a78.688,78.688,0,0,1,7.911-18.694A69.245,69.245,0,0,1,114.313,91.88a32.262,32.262,0,0,1,10.251-7.273,12,12,0,0,1,8.507-.893,7.486,7.486,0,0,1,4.594,5.934,28.54,28.54,0,0,1-1.17,13.377,66.865,66.865,0,0,1-5.4,12.76,115.972,115.972,0,0,1-8.8,14.015,114.6,114.6,0,0,1-11.123,12.909A61.184,61.184,0,0,1,99.3,152.321a267.974,267.974,0,0,0-2.658,28.158q1.978-4.487,4.764-10.633c1.871-4.062,3.871-7.954,6.04-11.676a58.017,58.017,0,0,1,6.742-9.591,9.655,9.655,0,0,1,6.912-3.956,8.507,8.507,0,0,1,7.741,4.126,23.245,23.245,0,0,1,3.041,10.081,48.234,48.234,0,0,1-.532,12.4,58.291,58.291,0,0,1-2.871,11.144,96.764,96.764,0,0,0,11.229-4.679,28.03,28.03,0,0,0,7.188-5.125,36.409,36.409,0,0,0,5.572-7.358Q155.082,160.785,158.676,153.767ZM133.5,102.875a24.968,24.968,0,0,0,1.085-11.314c-.6-2.765-1.85-4.253-3.764-4.764s-4.253.447-7.018,2.595a38.069,38.069,0,0,0-8.507,10.8,110.122,110.122,0,0,0-8.507,19.587,172.965,172.965,0,0,0-6.827,29.136,64.375,64.375,0,0,0,10.782-9.272,109.907,109.907,0,0,0,9.974-12.122,115.412,115.412,0,0,0,7.933-12.973A59.184,59.184,0,0,0,133.5,102.875Zm-29.115,98.87a6.614,6.614,0,0,0,4.572-1.7,16.483,16.483,0,0,0,3.148-3.786,22.117,22.117,0,0,0,1.978-3.956,13.523,13.523,0,0,1,.914-2.127l-3.424,1.255a23.393,23.393,0,0,0-3.871,1.786,17.692,17.692,0,0,0-3.4,2.531,5.147,5.147,0,0,0-1.723,3.233C102.34,200.81,102.935,201.746,104.381,201.746Z" transform="translate(851.409 -423.418)" fill="#a8825b"/><path d="M161.129,132.545l1.786.553a.617.617,0,0,1,.532.617,2.382,2.382,0,0,1-.447,1.17c-.3.489-.681,1.212-1.17,2.127-1.191,2.127-3.084,5.423-5.657,9.783s-5.423,8.783-8.507,13.228a84.474,84.474,0,0,1-9.719,11.591q-5.04,4.934-9,4.934a10.357,10.357,0,0,1-8.634-3.4,16.227,16.227,0,0,1-3.233-8.507A39.918,39.918,0,0,1,117.446,154q.893-5.572,1.978-9.889a41.491,41.491,0,0,0,1-5.487,79.7,79.7,0,0,1,1.7-8.719,15.971,15.971,0,0,1,3.424-6.933,11.867,11.867,0,0,1,4.572-3.4,4.253,4.253,0,0,1,3.786,0c1.021.6,1.276,1.744.808,3.424a77.981,77.981,0,0,1-2.871,8.975c-1.34,3.488-2.616,7.082-3.871,10.8s-2.424,7.4-3.509,11.059a41.089,41.089,0,0,0-1.808,9.783,13.121,13.121,0,0,0,1.361,7.018,6.1,6.1,0,0,0,5.87,2.977,8.209,8.209,0,0,0,4.764-2.254,37.369,37.369,0,0,0,5.657-5.848q2.871-3.573,5.848-7.911t5.572-8.507c1.723-2.765,3.254-5.274,4.572-7.55s2.276-4.019,2.892-5.21c.468-.851.851-1.553,1.17-2.127S160.874,133.034,161.129,132.545Zm-27.52-19.14a4.253,4.253,0,0,1-3.509-1.531,4.041,4.041,0,0,1-.447-3.871,8.358,8.358,0,0,1,2.7-3.764,6.614,6.614,0,0,1,4.253-1.616,3.849,3.849,0,0,1,3.318,1.616,3.913,3.913,0,0,1,.447,3.764,7.507,7.507,0,0,1-2.7,3.871,6.614,6.614,0,0,1-4.062,1.616Z" transform="translate(887.981 -401.664)" fill="#a8825b"/><path d="M191.929,137.445c1.68.468,2.446.829,2.339,1.063s-.723,1.319-1.808,3.254l-3.509,6.912q-2.424,4.743-5.657,10.634c-2.127,3.956-4.466,8.039-6.912,12.229s-4.934,8.039-7.38,11.505a64.04,64.04,0,0,1-7.1,8.507,9.506,9.506,0,0,1-6.1,3.318,7.741,7.741,0,0,1-6.21-2.616,15.482,15.482,0,0,1-3.233-6.742,37.217,37.217,0,0,1-.893-9.336,92.344,92.344,0,0,1,.7-10.336c.425-3.424.957-6.635,1.616-9.634s1.234-5.444,1.723-7.358q1.085-3.956,2.233-7.656a30.668,30.668,0,0,0,1.446-6.912,12.972,12.972,0,0,0-.808-5.934,9.8,9.8,0,0,0-4.487-4.679q-1.616,3.807-3.254,7.465c-1.063,2.467-2.276,4.934-3.594,7.465-.468.829-.893,1.276-1.255,1.34a6.763,6.763,0,0,1-2.339-.447q2.51-4.849,4.253-8.719c1.191-2.573,2.467-5.551,3.786-8.89a20.821,20.821,0,0,1-6.572-7.465,14.376,14.376,0,0,1-2.127-8,9.017,9.017,0,0,1,2.595-5.487,9.145,9.145,0,0,1,4.594-2.339,8.932,8.932,0,0,1,4.849.447,6.38,6.38,0,0,1,3.424,2.871,10.91,10.91,0,0,1,.532,7.38c-.362,1.319-.766,2.7-1.255,4.126s-1.021,2.935-1.616,4.509a63.809,63.809,0,0,0,6.657,3.679,21.628,21.628,0,0,0,7.55,1.893c1.914.234,2.637,1.489,2.127,3.764a92.192,92.192,0,0,1-3.233,10.081q-2.339,6.38-4.764,13.483t-4.679,14.462a76.713,76.713,0,0,0-2.956,13.228,23.394,23.394,0,0,0,.447,9.7,5.168,5.168,0,0,0,5.487,3.786c1.319,0,2.956-1.106,4.934-3.339a79.685,79.685,0,0,0,6.38-8.358c2.276-3.36,4.594-7.061,6.933-11.144s4.487-8.018,6.38-11.867,3.722-7.21,5.21-10.166,2.552-5,3.148-6.189Zm-44.235-20.8c.489-1.319.893-2.616,1.255-3.871s.659-2.361.914-3.318a7.656,7.656,0,0,0-.191-5.572,4.254,4.254,0,0,0-2.127-1.808,5.187,5.187,0,0,0-7.635,4.317,6.231,6.231,0,0,0,1.978,5.125,37.325,37.325,0,0,0,5.806,5.125Z" transform="translate(910.391 -406.372)" fill="#a8825b"/><path d="M313.643,158.873l1.893.553a.577.577,0,0,1,.617.532,2.127,2.127,0,0,1-.532,1.085,11.59,11.59,0,0,0-1.255,2.339c-.978,1.786-2.276,4.487-3.956,8.081s-3.637,7.55-5.848,11.867-4.594,8.72-7.1,13.207a131.009,131.009,0,0,1-7.741,12.314,63.8,63.8,0,0,1-7.72,9.187,10.867,10.867,0,0,1-7.188,3.594,10.017,10.017,0,0,1-8.188-2.977,13.4,13.4,0,0,1-2.7-7.911,44.492,44.492,0,0,1,1.085-11.314q1.34-6.38,3.318-12.952t4.062-12.952a91.006,91.006,0,0,0,2.956-11.314,21.266,21.266,0,0,0,.277-7.911,3.615,3.615,0,0,0-4.041-2.977c-1.319,0-2.892,1.021-4.679,3.062a64.956,64.956,0,0,0-5.848,8q-3.148,4.934-6.572,10.974t-6.38,11.952c-.234,2.4-.383,4.785-.447,7.188s-.149,4.849-.276,7.38v4.679a5.338,5.338,0,0,1-2.127,4.126,5.4,5.4,0,0,1-4.041,1.17,5.976,5.976,0,0,1-3.871-2.424,9.4,9.4,0,0,1-1.34-6.657v-.829a61.375,61.375,0,0,1,.362-8.634q.893-11.867,2.68-23.9-2.531,4.487-6.38,11.038a146,146,0,0,1-8.273,12.59,77.692,77.692,0,0,1-8.89,10.336c-3,2.892-5.636,4.253-7.911,4.253a10.017,10.017,0,0,1-9.358-4.487,26.69,26.69,0,0,1-3.849-11.591,66.548,66.548,0,0,1,0-14.887,117.586,117.586,0,0,1,2.233-14.206c1.212-5.381,2.573-10.633,4.147-15.993s3-10.634,4.253-15.993l-8.018-1.808-7.805-1.808c-5.4-1.191-10.634-2.276-15.738-3.233s-9.974-1.68-14.653-2.127a74.221,74.221,0,0,0-13.122-.276,40.11,40.11,0,0,0-10.974,2.254,4.083,4.083,0,0,1-2.127.17,2.127,2.127,0,0,1-1.361-.617.914.914,0,0,1,0-1.085,3.509,3.509,0,0,1,1.808-1.17,48.341,48.341,0,0,1,12.037-2.616,93.939,93.939,0,0,1,14.121-.17,149.678,149.678,0,0,1,15.546,1.786c5.4.914,10.846,1.957,16.376,3.148l7.358,1.893,7.38,1.893a14.057,14.057,0,0,0,.532-2.127c.128-.659.234-1.361.362-2.127.489-2.4.872-4.657,1.17-6.763a42.532,42.532,0,0,0,.447-6.019,11.8,11.8,0,0,1,1.893-6.742,13.249,13.249,0,0,1,4.041-4.041,4.977,4.977,0,0,1,3.956-.723,2.637,2.637,0,0,1,1.808,2.871,96.723,96.723,0,0,1-1,10.634q-.8,5.583-2.127,11.505c-.362,1.319-.829,3.254-1.446,5.763a137.808,137.808,0,0,0,15.461,2.956,80.961,80.961,0,0,0,15.823.447c.362-1.3.723-2.595,1.085-3.849s.723-2.552,1.085-3.871a87.811,87.811,0,0,1,8.188-19.949,69.9,69.9,0,0,1,10.336-14.206,34.453,34.453,0,0,1,10.421-7.826,10.846,10.846,0,0,1,8.507-.893,8,8,0,0,1,4.509,6.38,32.135,32.135,0,0,1-1.446,14.206,49.68,49.68,0,0,1-11.42,21.267q-7.805,8.294-22.564,10.782-2.318,9.74-4.126,21.054t-2.871,24.989c1.659-3.254,3.53-6.635,5.572-10.166a83.487,83.487,0,0,1,6.38-9.7,47.663,47.663,0,0,1,6.912-7.38,10.634,10.634,0,0,1,6.742-2.977q5.785,0,8.1,3.062a13.611,13.611,0,0,1,2.509,8,43.618,43.618,0,0,1-1.255,11.25q-1.436,6.38-3.509,12.76l-4.041,12.867A93.093,93.093,0,0,0,273,207.361a20.139,20.139,0,0,0-.191,8,3.786,3.786,0,0,0,4.253,3.062c1.319,0,3.02-1.233,5.125-3.679a79.9,79.9,0,0,0,6.635-9.272q3.509-5.551,7.21-12.314t6.827-13.037l5.487-11.059c1.552-3.169,2.637-5.359,3.233-6.55.468-.851.872-1.6,1.17-2.254a9.739,9.739,0,0,1,.893-1.382Zm-73.18.191c.829-4.253,1.744-8.507,2.7-12.76l2.871-12.76a97.514,97.514,0,0,1-15.823-.532q-7.72-.893-15.631-2.339-1.467,5.742-3.424,13.313c-1.3,5.04-2.573,10.208-3.764,15.546s-2.254,10.634-3.147,15.716a94.611,94.611,0,0,0-1.531,13.845,29.5,29.5,0,0,0,1.063,9.91,4.743,4.743,0,0,0,4.679,3.764,7.635,7.635,0,0,0,4.87-2.509,58.36,58.36,0,0,0,5.742-6.38,96.464,96.464,0,0,0,6.125-8.507c2.042-3.105,3.913-6.167,5.657-9.166l4.679-8.1c1.361-2.382,2.361-4.253,2.956-5.381.489-.851.872-1.553,1.17-2.127a14.758,14.758,0,0,1,.808-1.531Zm46.022-58.612c1.914-6.848,2.127-11.718.553-14.653s-4.019-3.424-7.38-1.446S272.47,90.946,268.153,98.2s-8.209,17.588-11.676,31.007a44.363,44.363,0,0,0,12.207-4.126,31.751,31.751,0,0,0,14.206-14.887,59.86,59.86,0,0,0,3.594-9.74Z" transform="translate(903.923 -427.991)" fill="#a8825b"/></g></svg>