<svg xmlns="http://www.w3.org/2000/svg" width="1920" height="201.581" viewBox="0 0 1920 201.581"><g transform="translate(3909.247 90.985) rotate(180)"><g transform="translate(1989.247 -110.595)"><g transform="translate(0.246 132.689)"><path d="M-649.34,308.135l-1.05-2.615c61.656-4.206,118.133-10.683,183.525-18.182,27.386-3.142,55.706-6.39,86.062-9.651,26.15-2.809,52.287-5.734,77.564-8.562C-145.7,251.493,3.1,234.843,191.711,240.3c80.829,2.339,163.938,15.867,251.926,30.191C547.286,287.359,654.464,304.8,765.572,304.8c82.845,0,181.708-6.937,286.378-14.282,70.423-4.941,143.242-10.052,214.279-13.223l.693,2.637c-70.844,3.162-143.567,8.266-213.891,13.2-104.947,7.365-204.073,14.321-287.46,14.321-112.334,0-220.09-17.541-324.3-34.5-87.517-14.247-170.179-27.7-250.016-30.011-187.525-5.429-335.815,11.17-492.811,28.741-25.293,2.831-51.446,5.757-77.625,8.57-30.308,3.256-58.6,6.5-85.96,9.638C-530.71,297.411-587.341,303.906-649.34,308.135Z" transform="translate(650.39 -239.243)" fill="#a8825b"/></g><g transform="translate(0.313 128.273)"><path d="M765.337,307.888c-111.631,0-218.671-18.52-322.185-36.43-88.323-15.28-171.748-29.713-252.7-31.946C13.13,234.6-123.082,249.48-267.3,265.234c-33.141,3.621-67.411,7.365-102.417,10.886l-21.946,2.212c-97.9,9.876-175.225,17.676-257.962,21.4l-.7-2.635c82.314-3.707,159.462-11.49,257.131-21.342l21.946-2.212c34.945-3.516,69.183-7.256,102.3-10.873,144.742-15.813,281.459-30.748,459.826-25.805,82.028,2.262,165.931,16.779,254.761,32.147C548.57,286.822,655,305.236,765.337,305.236c85.643,0,186.727-7.948,293.748-16.363,67.918-5.339,138.148-10.863,207.136-14.519l.822,2.63c-68.795,3.647-138.928,9.161-206.75,14.494C952.964,299.916,851.587,307.888,765.337,307.888Z" transform="translate(650.323 -235.905)" fill="#ab855e"/></g><g transform="translate(0.38 123.848)"><path d="M765.1,308.322c-111,0-217.393-19.5-320.281-38.351-89.053-16.318-173.166-31.732-255.183-33.884-169.282-4.487-295.361,9.077-428.852,23.438-38.843,4.178-79.009,8.5-121.043,12.466-110.542,10.429-197.554,17.3-289.656,19.34l-.344-2.648c91.641-2.027,178.357-8.88,288.565-19.276,41.937-3.958,82.058-8.274,120.853-12.447,134.008-14.416,260.572-28.036,430.888-23.518,83.166,2.182,167.792,17.69,257.385,34.108,102.276,18.741,208.032,38.12,317.668,38.12,88.158,0,191.011-8.967,299.906-18.462,65.821-5.739,133.886-11.674,201.207-15.8l.947,2.623c-67.128,4.114-135.093,10.04-200.825,15.772C957.106,299.326,853.931,308.322,765.1,308.322Z" transform="translate(650.256 -232.56)" fill="#ad8760"/></g><g transform="translate(0.444 119.419)"><path d="M764.872,308.757c-110.439,0-216.236-20.471-318.547-40.269-89.718-17.36-174.458-33.757-257.49-35.825C26.15,228.542-91.2,241.053-215.431,254.3c-43.023,4.588-87.513,9.331-135.358,13.565-119.151,10.549-208.368,15.062-297.92,15.062h-1.483l.01-2.653h1.474c89.076,0,177.877-4.5,296.571-15,47.71-4.224,92.136-8.959,135.1-13.539,124.739-13.3,242.558-25.855,406.266-21.713,84.255,2.1,169.54,18.6,259.83,36.071C550.732,285.761,655.868,306.1,764.872,306.1c90.425,0,194.662-9.988,305.02-20.565,64.08-6.14,130.344-12.49,196.321-17.075l1.069,2.615c-65.782,4.571-131.945,10.912-195.933,17.043C960.621,298.735,856.035,308.757,764.872,308.757Z" transform="translate(650.192 -229.212)" fill="#b08a63"/></g><g transform="translate(0.403 114.983)"><path d="M764.7,309.193c-109.911,0-215.146-21.443-316.915-42.182-90.321-18.4-175.629-35.788-259.628-37.772C31,225.449-78.622,237.087-194.686,249.406c-46.061,4.888-93.691,9.945-146.437,14.329-118.127,9.816-210.57,13.04-309.11,10.779l.356-2.647c97.963,2.245,189.924-.963,307.48-10.732,52.582-4.37,100.129-9.417,146.106-14.3,116.564-12.373,226.661-24.059,384.819-20.245,85.3,2.014,171.181,19.513,262.106,38.041,101.108,20.6,205.659,41.907,314.065,41.907,92.475,0,197.771-11.008,309.245-22.664,62.618-6.546,127.37-13.317,192.267-18.353l1.191,2.6c-64.7,5.022-129.354,11.782-191.875,18.319C963.651,298.144,857.977,309.193,764.7,309.193Z" transform="translate(650.233 -225.859)" fill="#b28d65"/></g><g transform="translate(0.362 110.542)"><path d="M764.531,309.63c-109.426,0-214.138-22.414-315.4-44.089-90.876-19.454-176.714-37.827-261.644-39.722-152.417-3.5-255.127,7.4-363.866,18.938-48.225,5.116-98.089,10.4-155.077,14.85-118.837,9.27-214.186,11.213-318.814,6.5l.7-2.635c103.961,4.684,198.742,2.752,316.918-6.467,56.782-4.429,106.544-9.708,154.669-14.813C-68.753,230.6,34.422,219.655,187.837,223.17c86.31,1.928,172.745,20.429,264.256,40.017,100.579,21.529,204.582,43.79,312.439,43.79,94.344,0,200.417-12.023,312.721-24.752,61.41-6.96,124.908-14.157,188.962-19.643l1.306,2.6c-63.855,5.468-127.25,12.654-188.564,19.6C966.225,297.561,859.745,309.63,764.531,309.63Z" transform="translate(650.274 -222.502)" fill="#b59068"/></g><g transform="translate(0.322 106.098)"><path d="M764.362,310.069c-108.979,0-213.2-23.382-313.992-45.994-91.4-20.5-177.724-39.871-263.56-41.679-148.292-3.217-240.3,6.564-346.835,17.893-49.689,5.284-101.068,10.748-161.773,15.19-152.216,11.142-251.484,7.37-328.516,2.209l1.033-2.617c76.5,5.124,175.1,8.868,326.357-2.2,60.462-4.425,111.722-9.876,161.292-15.148,102.595-10.91,199.5-21.212,348.776-17.972,87.292,1.838,174.243,21.344,266.3,42,100.086,22.453,203.576,45.67,310.919,45.67,96.057,0,202.684-13.03,315.571-26.824,60.407-7.382,122.871-15.014,186.284-20.949l1.421,2.586c-63.208,5.915-125.569,13.535-185.876,20.905C968.413,296.987,861.352,310.069,764.362,310.069Z" transform="translate(650.314 -219.143)" fill="#b7926a"/></g><g transform="translate(0.285 101.649)"><path d="M764.191,310.509c-108.562,0-212.322-24.347-312.669-47.892-91.882-21.56-178.671-41.922-265.392-43.641-144.677-2.967-231.18,6.28-331.36,16.986-50.591,5.407-102.9,11-166.915,15.391-155.9,10.7-254.682,5.322-338.205-2.081L-649,246.68c82.9,7.348,180.958,12.683,335.8,2.057,63.729-4.372,115.9-9.948,166.357-15.341,96.5-10.314,187.646-20.056,333.288-17.068,88.248,1.748,175.688,22.264,268.26,43.985,99.616,23.374,202.626,47.544,309.487,47.544,97.637,0,204.627-14.027,317.9-28.877,59.582-7.811,121.187-15.888,184.13-22.273l1.533,2.576c-62.731,6.363-124.234,14.427-183.716,22.224C970.278,296.421,862.826,310.509,764.191,310.509Z" transform="translate(650.351 -215.78)" fill="#ba956d"/></g><g transform="translate(0.249 97.183)"><path d="M764.022,310.951c-108.177,0-211.5-25.308-311.418-49.781-92.344-22.62-179.566-43.984-267.151-45.608C44.031,212.83-37.406,221.6-131.709,231.751c-51.028,5.494-103.8,11.175-170.789,15.481-160.875,10.34-262.276,3.048-347.889-6.374l1.658-2.561c84.932,9.345,185.538,16.58,345.243,6.314,66.671-4.285,119.28-9.948,170.154-15.425,94.813-10.208,176.7-19.024,319.08-16.272,89.188,1.654,177.081,23.183,270.137,45.976C555.06,283.181,657.612,308.3,764.022,308.3c99.1,0,206.291-15.011,319.773-30.905,58.9-8.249,119.816-16.779,182.437-23.618l1.642,2.563c-62.406,6.817-123.212,15.333-182.013,23.568C971.862,295.871,864.185,310.951,764.022,310.951Z" transform="translate(650.387 -212.404)" fill="#bd9870"/></g><g transform="translate(0.216 92.731)"><path d="M763.849,311.392c-107.812,0-210.715-26.266-310.235-51.667-92.78-23.681-180.414-46.05-268.846-47.582-138.479-2.51-215.195,5.828-304.021,15.481-51.079,5.552-103.9,11.291-173.6,15.482-166.517,10.011-270.263.788-357.567-10.668l1.949-2.528c86.572,11.361,189.456,20.505,354.69,10.573,69.34-4.169,121.982-9.89,172.891-15.423,89.327-9.709,166.488-18.091,305.932-15.567C275.152,211.055,363.482,233.6,457,257.469c98.754,25.207,200.871,51.27,306.853,51.27,100.46,0,207.708-15.985,321.25-32.908,58.362-8.7,118.7-17.694,181.138-24.993l1.754,2.551c-62.216,7.273-122.453,16.254-180.709,24.936C973.2,295.33,865.434,311.392,763.849,311.392Z" transform="translate(650.42 -209.039)" fill="#bf9a72"/></g><g transform="translate(0.186 88.275)"><path d="M763.678,311.831c-107.467,0-209.975-27.221-309.109-53.546-93.191-24.747-181.217-48.122-270.484-49.561-135.833-2.3-208.109,5.646-291.8,14.847-50.8,5.583-103.325,11.357-175.5,15.41-172.644,9.689-278.524-1.466-367.23-14.965l2.222-2.488c87.927,13.38,192.89,24.437,364.14,14.825,71.782-4.03,124.112-9.782,174.719-15.343,84.2-9.255,156.893-17.25,293.711-14.935,91.014,1.467,179.755,25.033,273.706,49.982C556.4,282.174,658.1,309.18,763.678,309.18c101.738,0,208.933-16.947,322.42-34.888,57.916-9.156,117.8-18.624,180.153-26.389l1.856,2.539c-62.122,7.737-121.9,17.188-179.71,26.326C974.338,294.8,866.605,311.831,763.678,311.831Z" transform="translate(650.45 -205.671)" fill="#c29d75"/></g><g transform="translate(0.157 83.818)"><path d="M763.506,312.274c-107.141,0-209.266-28.173-308.032-55.418-93.589-25.818-181.988-50.205-272.077-51.549C50.006,203.214-18.1,210.8-96.946,219.578c-50.229,5.6-102.17,11.382-176.645,15.277-179.623,9.394-291.316-4.465-376.888-19.262l2.484-2.446c89.053,15.4,195.945,28.368,373.6,19.077,74.033-3.871,125.755-9.634,175.776-15.206,79.354-8.839,147.889-16.474,282.257-14.362,91.9,1.372,181.039,25.961,275.411,51.994,97.964,27.025,199.269,54.971,304.458,54.971,102.933,0,209.968-17.894,323.29-36.838,57.573-9.624,117.1-19.577,179.472-27.813l1.955,2.525c-62.134,8.206-121.553,18.14-179.014,27.746C975.292,294.284,867.689,312.274,763.506,312.274Z" transform="translate(650.479 -202.302)" fill="#c4a077"/></g><g transform="translate(0.131 79.369)"><path d="M763.333,312.713c-106.832,0-208.591-29.122-307-57.284-93.968-26.893-182.724-52.293-273.622-53.543-131.161-1.9-195.3,5.353-269.565,13.752-49.413,5.589-100.509,11.368-177.11,15.092-186.42,9.063-300.008-6.826-386.54-23.561l2.727-2.4c85.712,16.578,198.255,32.313,383.063,23.33,76.12-3.7,126.978-9.452,176.161-15.015,71.662-8.106,139.362-15.759,271.481-13.845,92.785,1.275,182.3,26.893,277.064,54.013,97.6,27.931,198.518,56.812,303.341,56.812,104.063,0,210.864-18.828,323.936-38.763,57.3-10.1,116.55-20.548,179.016-29.263l2.054,2.512c-62.226,8.682-121.36,19.107-178.548,29.189C976.1,293.78,868.71,312.713,763.333,312.713Z" transform="translate(650.505 -198.938)" fill="#c7a37a"/></g><g transform="translate(0.109 74.904)"><path d="M763.157,313.156c-106.537,0-207.943-30.066-306.01-59.143-94.331-27.971-183.433-54.388-275.133-55.542C52.909,196.744-7.462,203.7-77.369,211.745c-48.373,5.566-98.394,11.323-176.982,14.862-193.443,8.713-308.827-9.2-396.176-27.862l2.951-2.355c86.5,18.484,200.784,36.211,392.529,27.582,78.065-3.516,127.83-9.243,175.953-14.781,67.488-7.767,131.22-15.1,261.309-13.371C275.871,197,365.744,223.646,460.9,251.858,558.136,280.69,658.687,310.5,763.157,310.5c105.139,0,211.638-19.751,324.391-40.664,57.09-10.587,116.124-21.536,178.754-30.737l2.153,2.5c-62.386,9.165-121.3,20.091-178.277,30.659C976.781,293.291,869.674,313.156,763.157,313.156Z" transform="translate(650.527 -195.563)" fill="#c9a57c"/></g><g transform="translate(0.088 66.264)"><path d="M762.982,314.618c-106.254,0-207.318-31.008-305.053-61-94.685-29.052-184.115-56.491-276.612-57.549C54.117,194.53-2.646,201.195-68.4,208.909c-47.142,5.53-95.886,11.249-176.339,14.593-200.676,8.342-317.75-11.577-405.809-32.162l3.162-2.307c87.181,20.378,203.137,40.1,402,31.831,79.889-3.322,128.354-9.007,175.228-14.506,63.508-7.451,123.5-14.486,251.656-12.936,94.518,1.08,184.737,28.763,280.258,58.07,96.9,29.73,197.094,60.473,301.224,60.473,106.161,0,212.3-20.66,324.66-42.535,56.94-11.085,115.821-22.548,178.678-32.241l2.249,2.483c-62.61,9.656-121.367,21.094-178.188,32.157C977.349,293.833,870.582,314.618,762.982,314.618Z" transform="translate(650.548 -189.033)" fill="#cca87f"/></g><g transform="translate(0.069 56.799)"><path d="M762.808,316.283c-105.985,0-206.716-31.948-304.131-62.843-95.023-30.136-184.773-58.6-278.053-59.561C55.22,192.513-.7,199.212-59.91,206.31c-45.732,5.481-93.017,11.148-175.226,14.289q-44.644,1.707-84.009,1.664c-157.412,0-255.427-18.852-331.421-38.126l3.36-2.26c87.783,22.262,205.313,43.96,411.478,36.08,81.6-3.117,128.588-8.749,174.028-14.2,59.7-7.156,116.108-13.916,242.488-12.536,95.365.982,185.926,29.7,281.8,60.109,96.563,30.626,196.417,62.294,300.22,62.294,107.138,0,212.86-21.559,324.787-44.383,56.835-11.59,115.608-23.575,178.75-33.771l2.339,2.471c-62.886,10.152-121.531,22.112-178.247,33.677C977.821,294.591,871.445,316.283,762.808,316.283Z" transform="translate(650.567 -181.878)" fill="#cfab82"/></g><g transform="translate(0.053 47.335)"><path d="M762.631,317.946c-105.722,0-206.131-32.883-303.237-64.682-95.348-31.227-185.411-60.72-279.471-61.583C56.178,190.483,3.711,196.92-51.851,203.74c-44.162,5.42-89.826,11.025-173.688,13.956-215.538,7.529-335.811-16.378-425.044-40.761l3.539-2.211c88.318,24.13,207.38,47.788,420.964,40.33,83.206-2.908,128.549-8.473,172.4-13.855,56.054-6.881,108.989-13.378,233.746-12.167,96.213.881,191.33,32.03,283.315,62.154,96.242,31.518,195.76,64.108,299.246,64.108,108.076,0,213.341-22.442,324.786-46.2,56.772-12.1,115.475-24.621,178.954-35.324l2.428,2.455c-63.216,10.659-121.791,23.146-178.438,35.224C978.2,295.36,872.267,317.946,762.631,317.946Z" transform="translate(650.583 -174.724)" fill="#d1ad84"/></g><g transform="translate(0.039 37.866)"><path d="M762.456,319.61c-105.473,0-205.566-33.814-302.37-66.514-95.667-32.318-186.028-62.845-280.865-63.608C57.047,188.449,7.873,194.641-44.17,201.2c-42.452,5.349-86.348,10.881-171.777,13.593-224.412,7.135-350.176-20.336-434.651-45.062l3.712-2.164c88.785,25.986,209.345,51.609,430.449,44.583,84.721-2.691,128.274-8.18,170.4-13.487,52.546-6.621,102.184-12.877,225.389-11.826,97.054.781,192.5,33.024,284.8,64.206,95.926,32.407,195.119,65.915,298.3,65.915,108.983,0,213.758-23.315,324.688-48,56.738-12.626,115.407-25.682,179.258-36.9l2.511,2.441c-63.575,11.17-122.113,24.2-178.726,36.795C978.526,296.14,873.056,319.61,762.456,319.61Z" transform="translate(650.597 -167.567)" fill="#d4b087"/></g><g transform="translate(0.027 28.401)"><path d="M762.28,321.274c-105.231,0-205.021-34.742-301.526-68.34C369,220.989,274.122,187.957,178.517,187.291c-120.715-.878-166.7,5.08-215.351,11.392-40.617,5.269-82.611,10.717-169.523,13.208C-438.541,218.538-565.734,189-650.609,162.529l3.868-2.117c83.982,26.2,209.891,55.427,439.939,48.833,86.156-2.469,127.785-7.87,168.044-13.092,49.167-6.379,95.605-12.4,217.387-11.513,97.885.681,193.65,34.022,286.262,66.266,95.621,33.292,194.5,67.716,297.389,67.716,109.854,0,209.321-23.065,324.491-49.773,56.736-13.157,115.4-26.762,179.661-38.5l2.594,2.425c-63.976,11.689-122.509,25.263-179.114,38.389C978.78,296.932,873.812,321.274,762.28,321.274Z" transform="translate(650.609 -160.412)" fill="#d6b389"/></g><g transform="translate(0.016 18.935)"><path d="M762.1,322.938c-105,0-204.489-35.668-300.7-70.16-92.041-33-187.217-67.116-283.586-67.681-119.4-.725-162.257,5.014-207.636,11.093-38.662,5.179-78.636,10.536-166.951,12.8q-30.74.788-59.1.775c-202.549,0-316.783-28.632-394.747-54.436l4.012-2.069c84.345,27.914,211.667,59.177,449.439,53.083,87.5-2.241,127.085-7.545,165.366-12.672,45.9-6.15,89.269-11.955,209.707-11.222,98.713.579,194.791,35.021,287.7,68.33C560.929,284.948,659.5,320.285,762.1,320.285c110.706,0,209.656-23.878,324.233-51.526,56.75-13.694,115.435-27.854,180.128-40.123l2.677,2.409c-64.405,12.215-122.952,26.342-179.568,40C974.191,298.892,874.543,322.938,762.1,322.938Z" transform="translate(650.62 -153.257)" fill="#d9b68c"/></g><g transform="translate(0.007 9.467)"><path d="M761.925,324.6c-104.772,0-203.968-36.588-299.9-71.973C369.7,218.578,274.238,183.367,177.107,182.9c-118.14-.572-158,4.956-200.213,10.816C-59.7,198.8-97.55,204.055-187.2,206.086c-247.848,5.609-377.861-28.026-463.433-57.962l4.146-2.024c84.666,29.617,213.318,62.891,458.938,57.339,88.776-2.012,126.2-7.209,162.4-12.234,42.741-5.935,83.091-11.544,202.328-10.954,99.538.478,195.914,36.023,289.114,70.4,95.037,35.052,193.308,71.3,295.631,71.3,111.526,0,209.941-24.677,323.9-53.252,56.787-14.24,115.512-28.966,180.67-41.772l2.756,2.4c-64.864,12.748-123.447,27.438-180.1,41.643C974.372,299.746,875.247,324.6,761.925,324.6Z" transform="translate(650.629 -146.1)" fill="#dbb88e"/></g><g transform="translate(0)"><path d="M761.746,326.266c-104.549,0-203.462-37.507-299.117-73.779C370.034,217.377,274.29,181.071,176.4,180.706c-116.955-.414-153.92,4.905-193.051,10.558-34.442,4.977-70.062,10.122-160.971,11.917-255.758,5.063-387.142-30.619-473.012-62.259l4.27-1.979c84.961,31.3,214.985,66.589,468.435,61.589,89.98-1.777,125.149-6.858,159.162-11.771,39.672-5.732,77.158-11.13,195.224-10.708,100.356.374,197.023,37.03,290.511,72.48,94.752,35.93,192.727,73.082,294.78,73.082,112.33,0,210.2-25.47,323.522-54.961,56.841-14.793,115.617-30.089,181.263-43.439l2.833,2.38c-65.345,13.286-123.977,28.546-180.677,43.3C974.523,300.608,875.93,326.266,761.746,326.266Z" transform="translate(650.636 -138.944)" fill="#debb91"/></g></g></g></svg>